{
	"asset":{
		"generator":"Khronos glTF Blender I/O v4.3.47",
		"version":"2.0"
	},
	"scene":0,
	"scenes":[
		{
			"name":"Scene",
			"nodes":[
				0,
				1,
				2,
				3,
				4,
				5,
				6
			]
		}
	],
	"nodes":[
		{
			"mesh":0,
			"name":"Cube",
			"scale":[
				0.4277726411819458,
				0.4277726411819458,
				0.4277726411819458
			],
			"translation":[
				0,
				1.0012352466583252,
				0
			]
		},
		{
			"mesh":1,
			"name":"Cylinder",
			"scale":[
				0.11799116432666779,
				0.11799116432666779,
				0.11799116432666779
			],
			"translation":[
				0,
				1.5134148597717285,
				0
			]
		},
		{
			"mesh":2,
			"name":"Cylinder.001",
			"rotation":[
				0,
				0,
				-0.7071068286895752,
				0.7071068286895752
			],
			"scale":[
				0.11799116432666779,
				0.11799116432666779,
				0.11799116432666779
			],
			"translation":[
				0.5193222761154175,
				1.0169261693954468,
				0
			]
		},
		{
			"mesh":3,
			"name":"Cylinder.003",
			"scale":[
				0.11799116432666779,
				0.11799116432666779,
				0.11799116432666779
			],
			"translation":[
				0,
				0.640420138835907,
				0
			]
		},
		{
			"mesh":4,
			"name":"Cylinder.004",
			"rotation":[
				0.7071068286895752,
				0,
				0,
				0.7071068286895752
			],
			"scale":[
				0.11799116432666779,
				0.11799116432666779,
				0.11799116432666779
			],
			"translation":[
				-0.005474686622619629,
				1.0169261693954468,
				-0.370423287153244
			]
		},
		{
			"mesh":5,
			"name":"Cylinder.005",
			"rotation":[
				0.7071068286895752,
				0,
				0,
				0.7071068286895752
			],
			"scale":[
				0.11799116432666779,
				0.11799116432666779,
				0.11799116432666779
			],
			"translation":[
				-0.005474686622619629,
				1.0169261693954468,
				0.5177541971206665
			]
		},
		{
			"mesh":6,
			"name":"Cylinder.006",
			"rotation":[
				-0.7071068286895752,
				0.7071068286895752,
				0,
				3.090862321641907e-08
			],
			"scale":[
				0.11799116432666779,
				0.11799116432666779,
				0.11799116432666779
			],
			"translation":[
				-0.4958912134170532,
				1.0169261693954468,
				0
			]
		}
	],
	"materials":[
		{
			"doubleSided":true,
			"name":"Material",
			"pbrMetallicRoughness":{
				"baseColorFactor":[
					0.8000156879425049,
					0.05678410455584526,
					0.09175623208284378,
					1
				],
				"metallicFactor":0,
				"roughnessFactor":0.5
			}
		},
		{
			"doubleSided":true,
			"name":"Material.003",
			"pbrMetallicRoughness":{
				"baseColorFactor":[
					0.3252893090248108,
					0.26738062500953674,
					0.801350474357605,
					1
				],
				"metallicFactor":0,
				"roughnessFactor":0.5
			}
		},
		{
			"doubleSided":true,
			"name":"Material.005",
			"pbrMetallicRoughness":{
				"baseColorFactor":[
					0.07457882910966873,
					0.8011000156402588,
					0,
					1
				],
				"metallicFactor":0,
				"roughnessFactor":0
			}
		},
		{
			"doubleSided":true,
			"name":"Material.004",
			"pbrMetallicRoughness":{
				"baseColorFactor":[
					0,
					0.8015002012252808,
					0.4343172609806061,
					1
				],
				"metallicFactor":0,
				"roughnessFactor":0.5
			}
		},
		{
			"doubleSided":true,
			"name":"Material.002",
			"pbrMetallicRoughness":{
				"baseColorFactor":[
					0.0013493200531229377,
					0.8007017374038696,
					0,
					1
				],
				"metallicFactor":0,
				"roughnessFactor":0.5
			}
		},
		{
			"doubleSided":true,
			"name":"Material.001",
			"pbrMetallicRoughness":{
				"baseColorFactor":[
					0.6673310995101929,
					0,
					0.8033199906349182,
					1
				],
				"metallicFactor":0,
				"roughnessFactor":0.5
			}
		},
		{
			"doubleSided":true,
			"name":"Material.006",
			"pbrMetallicRoughness":{
				"baseColorFactor":[
					0.1119999885559082,
					0.800000011920929,
					0,
					1
				],
				"metallicFactor":0,
				"roughnessFactor":0
			}
		}
	],
	"meshes":[
		{
			"name":"Cube",
			"primitives":[
				{
					"attributes":{
						"POSITION":0,
						"NORMAL":1,
						"TEXCOORD_0":2
					},
					"indices":3,
					"material":0
				}
			]
		},
		{
			"name":"Cylinder",
			"primitives":[
				{
					"attributes":{
						"POSITION":4,
						"NORMAL":5,
						"TEXCOORD_0":6
					},
					"indices":7,
					"material":1
				}
			]
		},
		{
			"name":"Cylinder.001",
			"primitives":[
				{
					"attributes":{
						"POSITION":8,
						"NORMAL":9,
						"TEXCOORD_0":10
					},
					"indices":11,
					"material":2
				}
			]
		},
		{
			"name":"Cylinder.003",
			"primitives":[
				{
					"attributes":{
						"POSITION":12,
						"NORMAL":13,
						"TEXCOORD_0":14
					},
					"indices":7,
					"material":3
				}
			]
		},
		{
			"name":"Cylinder.004",
			"primitives":[
				{
					"attributes":{
						"POSITION":15,
						"NORMAL":16,
						"TEXCOORD_0":17
					},
					"indices":7,
					"material":4
				}
			]
		},
		{
			"name":"Cylinder.005",
			"primitives":[
				{
					"attributes":{
						"POSITION":18,
						"NORMAL":19,
						"TEXCOORD_0":20
					},
					"indices":7,
					"material":5
				}
			]
		},
		{
			"name":"Cylinder.006",
			"primitives":[
				{
					"attributes":{
						"POSITION":21,
						"NORMAL":22,
						"TEXCOORD_0":23
					},
					"indices":11,
					"material":6
				}
			]
		}
	],
	"accessors":[
		{
			"bufferView":0,
			"componentType":5126,
			"count":24,
			"max":[
				1,
				1,
				1
			],
			"min":[
				-1,
				-1,
				-1
			],
			"type":"VEC3"
		},
		{
			"bufferView":1,
			"componentType":5126,
			"count":24,
			"type":"VEC3"
		},
		{
			"bufferView":2,
			"componentType":5126,
			"count":24,
			"type":"VEC2"
		},
		{
			"bufferView":3,
			"componentType":5123,
			"count":36,
			"type":"SCALAR"
		},
		{
			"bufferView":4,
			"componentType":5126,
			"count":192,
			"max":[
				1,
				-0.24166059494018555,
				1
			],
			"min":[
				-1,
				-1,
				-1
			],
			"type":"VEC3"
		},
		{
			"bufferView":5,
			"componentType":5126,
			"count":192,
			"type":"VEC3"
		},
		{
			"bufferView":6,
			"componentType":5126,
			"count":192,
			"type":"VEC2"
		},
		{
			"bufferView":7,
			"componentType":5123,
			"count":372,
			"type":"SCALAR"
		},
		{
			"bufferView":8,
			"componentType":5126,
			"count":320,
			"max":[
				1,
				4.1801557540893555,
				1
			],
			"min":[
				-2.8009114265441895,
				-1,
				-1.0566513538360596
			],
			"type":"VEC3"
		},
		{
			"bufferView":9,
			"componentType":5126,
			"count":320,
			"type":"VEC3"
		},
		{
			"bufferView":10,
			"componentType":5126,
			"count":320,
			"type":"VEC2"
		},
		{
			"bufferView":11,
			"componentType":5123,
			"count":564,
			"type":"SCALAR"
		},
		{
			"bufferView":12,
			"componentType":5126,
			"count":192,
			"max":[
				1,
				-0.24166059494018555,
				1
			],
			"min":[
				-1,
				-1,
				-1
			],
			"type":"VEC3"
		},
		{
			"bufferView":13,
			"componentType":5126,
			"count":192,
			"type":"VEC3"
		},
		{
			"bufferView":14,
			"componentType":5126,
			"count":192,
			"type":"VEC2"
		},
		{
			"bufferView":15,
			"componentType":5126,
			"count":192,
			"max":[
				1,
				-0.24166059494018555,
				1
			],
			"min":[
				-1,
				-1,
				-1
			],
			"type":"VEC3"
		},
		{
			"bufferView":16,
			"componentType":5126,
			"count":192,
			"type":"VEC3"
		},
		{
			"bufferView":17,
			"componentType":5126,
			"count":192,
			"type":"VEC2"
		},
		{
			"bufferView":18,
			"componentType":5126,
			"count":192,
			"max":[
				1,
				-0.24166059494018555,
				1
			],
			"min":[
				-1,
				-1,
				-1
			],
			"type":"VEC3"
		},
		{
			"bufferView":19,
			"componentType":5126,
			"count":192,
			"type":"VEC3"
		},
		{
			"bufferView":20,
			"componentType":5126,
			"count":192,
			"type":"VEC2"
		},
		{
			"bufferView":21,
			"componentType":5126,
			"count":320,
			"max":[
				1,
				4.1801557540893555,
				1
			],
			"min":[
				-2.8009114265441895,
				-1,
				-1.0566513538360596
			],
			"type":"VEC3"
		},
		{
			"bufferView":22,
			"componentType":5126,
			"count":320,
			"type":"VEC3"
		},
		{
			"bufferView":23,
			"componentType":5126,
			"count":320,
			"type":"VEC2"
		}
	],
	"bufferViews":[
		{
			"buffer":0,
			"byteLength":288,
			"byteOffset":0,
			"target":34962
		},
		{
			"buffer":0,
			"byteLength":288,
			"byteOffset":288,
			"target":34962
		},
		{
			"buffer":0,
			"byteLength":192,
			"byteOffset":576,
			"target":34962
		},
		{
			"buffer":0,
			"byteLength":72,
			"byteOffset":768,
			"target":34963
		},
		{
			"buffer":0,
			"byteLength":2304,
			"byteOffset":840,
			"target":34962
		},
		{
			"buffer":0,
			"byteLength":2304,
			"byteOffset":3144,
			"target":34962
		},
		{
			"buffer":0,
			"byteLength":1536,
			"byteOffset":5448,
			"target":34962
		},
		{
			"buffer":0,
			"byteLength":744,
			"byteOffset":6984,
			"target":34963
		},
		{
			"buffer":0,
			"byteLength":3840,
			"byteOffset":7728,
			"target":34962
		},
		{
			"buffer":0,
			"byteLength":3840,
			"byteOffset":11568,
			"target":34962
		},
		{
			"buffer":0,
			"byteLength":2560,
			"byteOffset":15408,
			"target":34962
		},
		{
			"buffer":0,
			"byteLength":1128,
			"byteOffset":17968,
			"target":34963
		},
		{
			"buffer":0,
			"byteLength":2304,
			"byteOffset":19096,
			"target":34962
		},
		{
			"buffer":0,
			"byteLength":2304,
			"byteOffset":21400,
			"target":34962
		},
		{
			"buffer":0,
			"byteLength":1536,
			"byteOffset":23704,
			"target":34962
		},
		{
			"buffer":0,
			"byteLength":2304,
			"byteOffset":25240,
			"target":34962
		},
		{
			"buffer":0,
			"byteLength":2304,
			"byteOffset":27544,
			"target":34962
		},
		{
			"buffer":0,
			"byteLength":1536,
			"byteOffset":29848,
			"target":34962
		},
		{
			"buffer":0,
			"byteLength":2304,
			"byteOffset":31384,
			"target":34962
		},
		{
			"buffer":0,
			"byteLength":2304,
			"byteOffset":33688,
			"target":34962
		},
		{
			"buffer":0,
			"byteLength":1536,
			"byteOffset":35992,
			"target":34962
		},
		{
			"buffer":0,
			"byteLength":3840,
			"byteOffset":37528,
			"target":34962
		},
		{
			"buffer":0,
			"byteLength":3840,
			"byteOffset":41368,
			"target":34962
		},
		{
			"buffer":0,
			"byteLength":2560,
			"byteOffset":45208,
			"target":34962
		}
	],
	"buffers":[
		{
			"byteLength":47768,
			"uri":"grubo.bin"
		}
	]
}
